<svg width="24" height="25" viewBox="0 0 24 25" fill="none" xmlns="http://www.w3.org/2000/svg">
<path fill-rule="evenodd" clip-rule="evenodd" d="M5.58088 11.7216C7.40799 8.80868 9.77433 7.5 11.9998 7.5C14.2254 7.5 16.5917 8.80868 18.4188 11.7216C18.7168 12.1966 18.7168 12.8034 18.4188 13.2784C16.5917 16.1913 14.2254 17.5 11.9998 17.5C9.77433 17.5 7.40799 16.1913 5.58088 13.2784C5.28294 12.8034 5.28294 12.1966 5.58088 11.7216ZM20.1131 10.6588C18.0176 7.31811 15.0791 5.5 11.9998 5.5C8.92054 5.5 5.98206 7.31811 3.8866 10.6588C3.18103 11.7837 3.18103 13.2163 3.8866 14.3412C5.98206 17.6819 8.92054 19.5 11.9998 19.5C15.0791 19.5 18.0176 17.6819 20.1131 14.3412C20.8187 13.2163 20.8187 11.7837 20.1131 10.6588ZM11.9151 10.5018C11.9432 10.5006 11.9715 10.5 11.9998 10.5C13.1044 10.5 13.9998 11.3954 13.9998 12.5C13.9998 13.6046 13.1044 14.5 11.9998 14.5C10.8953 14.5 9.99985 13.6046 9.99985 12.5C9.99985 12.4716 10.0004 12.4434 10.0016 12.4153C10.1575 12.4701 10.3252 12.5 10.4998 12.5C11.3283 12.5 11.9998 11.8284 11.9998 11C11.9998 10.8253 11.97 10.6577 11.9151 10.5018ZM11.9998 8.5C9.79071 8.5 7.99985 10.2909 7.99985 12.5C7.99985 14.7091 9.79071 16.5 11.9998 16.5C14.209 16.5 15.9998 14.7091 15.9998 12.5C15.9998 10.2909 14.209 8.5 11.9998 8.5Z" fill="#666D80"/>
</svg>
