<svg width="51" height="51" viewBox="0 0 51 51" fill="none" xmlns="http://www.w3.org/2000/svg">
<path d="M37.9827 19.6394L28.4793 12.2477C27.6453 11.5988 26.6188 11.2466 25.5622 11.2466C24.5055 11.2466 23.479 11.5988 22.645 12.2477L13.1398 19.6394C12.5691 20.0841 12.1073 20.6531 11.7895 21.3031C11.4718 21.9531 11.3065 22.667 11.3062 23.3905V36.2209C11.3062 37.1662 11.6816 38.0727 12.35 38.7411C13.0184 39.4094 13.9249 39.7849 14.8702 39.7849H36.2542C37.1994 39.7849 38.1059 39.4094 38.7743 38.7411C39.4427 38.0727 39.8182 37.1662 39.8182 36.2209V23.3905C39.8182 21.9239 39.141 20.5393 37.9827 19.6394Z" stroke="#1BA98F" stroke-width="3.28985" stroke-linecap="round" stroke-linejoin="round"/>
<path d="M32.6369 30.8481C28.6986 33.2236 22.3155 33.2236 18.3809 30.8481" stroke="#1BA98F" stroke-width="3.28985" stroke-linecap="round" stroke-linejoin="round"/>
</svg>
